<svg xmlns="http://www.w3.org/2000/svg" xmlns:xlink="http://www.w3.org/1999/xlink"
 width="480"
 height="210"
 viewBox="0 0 480 210"
 role="img"
 font-family="system-ui, -apple-system, 'Noto Sans SC', sans-serif">

<defs>

<!-- 深空渐变（蓝紫深邃） -->
<radialGradient id="space" cx="50%" cy="36%" r="90%">
  <stop offset="0%" stop-color="#111635"/>
  <stop offset="55%" stop-color="#0b0f24"/>
  <stop offset="100%" stop-color="#05070f"/>
</radialGradient>

<!-- 星云光晕（靛蓝 / 紫） -->
<radialGradient id="nebA" cx="50%" cy="50%" r="50%">
  <stop offset="0%" stop-color="#5b6cff" stop-opacity="0.16"/>
  <stop offset="100%" stop-color="#5b6cff" stop-opacity="0"/>
</radialGradient>
<radialGradient id="nebB" cx="50%" cy="50%" r="50%">
  <stop offset="0%" stop-color="#c084fc" stop-opacity="0.10"/>
  <stop offset="100%" stop-color="#c084fc" stop-opacity="0"/>
</radialGradient>

<!-- 星体光芒 -->
<radialGradient id="haloGrad" cx="50%" cy="50%" r="50%">
  <stop offset="0%" stop-color="#ffd700" stop-opacity="0.42"/>
  <stop offset="100%" stop-color="#ffd700" stop-opacity="0"/>
</radialGradient>
<radialGradient id="coreGrad" cx="40%" cy="35%" r="75%">
  <stop offset="0%" stop-color="#ffffff"/>
  <stop offset="45%" stop-color="#ffe9a8"/>
  <stop offset="100%" stop-color="#e0a71e"/>
</radialGradient>

<filter id="nebBlur" x="-40%" y="-40%" width="180%" height="180%"><feGaussianBlur stdDeviation="18"/></filter>

</defs>

<rect x="1" y="1" width="478" height="208" rx="16" fill="url(#space)" stroke="rgba(142,140,216,0.25)" stroke-width="1.5"/>

<!-- 星云光斑（不规则椭圆 + 模糊，柔和不生硬） -->
<g filter="url(#nebBlur)">
  <ellipse cx="368" cy="46" rx="150" ry="80" fill="url(#nebA)" transform="rotate(-18 368 46)"/>
  <ellipse cx="70" cy="178" rx="130" ry="85" fill="url(#nebB)" transform="rotate(22 70 178)"/>
  <ellipse cx="250" cy="128" rx="180" ry="58" fill="#3b82f6" opacity="0.05" transform="rotate(-6 250 128)"/>
</g>

<!-- 背景星尘 -->
<circle cx="323.4976656138897" cy="20.47686664480716" r="0.5" fill="#9fb0e8" opacity="0.07"/><circle cx="299.5692349374294" cy="85.84737058542669" r="0.6" fill="#9fb0e8" opacity="0.13"/><circle cx="293.17142683267593" cy="159.40996380522847" r="0.8" fill="#9fb0e8" opacity="0.14"/><circle cx="77.73956759274006" cy="143.12088337447494" r="0.7" fill="#9fb0e8" opacity="0.15"/><circle cx="251.19152753055096" cy="30.113828122615814" r="1.0" fill="#9fb0e8" opacity="0.13"/><circle cx="455.936358332634" cy="37.22588279470801" r="0.6" fill="#9fb0e8" opacity="0.06"/><circle cx="366.757328748703" cy="123.34470918867737" r="0.8" fill="#9fb0e8" opacity="0.13"/><circle cx="25.744433015584946" cy="116.29174877237529" r="0.4" fill="#9fb0e8" opacity="0.09"/><circle cx="315.7511665523052" cy="99.95462646894157" r="0.4" fill="#9fb0e8" opacity="0.07"/><circle cx="309.59764140844345" cy="85.70208456739783" r="0.8" fill="#9fb0e8" opacity="0.10"/><circle cx="201.70803838968277" cy="191.20773650240153" r="0.8" fill="#9fb0e8" opacity="0.07"/><circle cx="359.4130113720894" cy="197.05758370552212" r="0.9" fill="#9fb0e8" opacity="0.16"/><circle cx="76.30694749951363" cy="201.54867816064507" r="0.8" fill="#9fb0e8" opacity="0.08"/><circle cx="396.7186582684517" cy="72.09636292606592" r="0.8" fill="#9fb0e8" opacity="0.14"/><circle cx="110.75893387198448" cy="67.20412883162498" r="0.5" fill="#9fb0e8" opacity="0.12"/><circle cx="243.7422983944416" cy="177.95471543911844" r="0.5" fill="#9fb0e8" opacity="0.11"/><circle cx="104.57519765198231" cy="36.998311198316514" r="0.5" fill="#9fb0e8" opacity="0.12"/><circle cx="324.02706952393055" cy="83.67588944360614" r="0.8" fill="#9fb0e8" opacity="0.13"/><circle cx="374.26004834473133" cy="194.58947828225791" r="0.9" fill="#9fb0e8" opacity="0.12"/><circle cx="323.41790921986103" cy="163.52993209753186" r="0.9" fill="#9fb0e8" opacity="0.12"/><circle cx="61.89250971376896" cy="59.54900578316301" r="0.9" fill="#9fb0e8" opacity="0.11"/><circle cx="90.77578280866146" cy="70.20791349653155" r="0.9" fill="#9fb0e8" opacity="0.13"/><circle cx="36.3209141343832" cy="151.37990418355912" r="0.7" fill="#9fb0e8" opacity="0.13"/><circle cx="219.11361575126648" cy="178.3417313778773" r="0.7" fill="#9fb0e8" opacity="0.07"/><circle cx="197.55833257734776" cy="163.77450453862548" r="0.7" fill="#9fb0e8" opacity="0.09"/><circle cx="105.7305181324482" cy="147.38209646381438" r="0.9" fill="#9fb0e8" opacity="0.11"/><circle cx="204.3441645205021" cy="36.54440693277866" r="0.9" fill="#9fb0e8" opacity="0.15"/><circle cx="375.2693738490343" cy="31.290419958531857" r="0.8" fill="#9fb0e8" opacity="0.09"/><circle cx="448.81150265038013" cy="30.727125823497772" r="0.8" fill="#9fb0e8" opacity="0.13"/><circle cx="226.77058005332947" cy="91.55403988156468" r="0.4" fill="#9fb0e8" opacity="0.08"/>

<!-- 标题 -->
<text x="24" y="32" font-size="15" font-weight="700" fill="#E6E1F5" letter-spacing="1">✨ 星图推衍 · 以行铸辰</text>
<text x="456" y="32" text-anchor="end" font-size="10" fill="#6F6888" letter-spacing="1">HISTORY</text>


<!-- 等级徽章 -->
<rect x="366" y="16" width="98" height="24" rx="12" fill="rgba(255,215,0,0.12)" stroke="rgba(255,215,0,0.45)" stroke-width="1"/>
<text x="415" y="32" text-anchor="middle" font-size="12" fill="#ffd700" letter-spacing="1">星河初成</text>

<!-- 历史累计数值 -->
<text x="24" y="50" font-size="10" fill="#7A7393" letter-spacing="2">历 史 累 计</text>
<text x="24" y="86" font-size="36" font-weight="800" fill="#ffffff">364</text>
<text x="100" y="86" font-size="13" fill="#94a3b8">次行迹</text>

<!-- 银河（星河初成及以上） -->
<defs>
  <linearGradient id="galaxyGrad" x1="0" y1="0" x2="1" y2="0">
    <stop offset="0" stop-color="#e4ecff" stop-opacity="0"/>
    <stop offset="0.3" stop-color="#dbe4ff" stop-opacity="0.5"/>
    <stop offset="0.6" stop-color="#ffe9b0" stop-opacity="0.28"/>
    <stop offset="1" stop-color="#e4ecff" stop-opacity="0"/>
  </linearGradient>
  <filter id="galaxyBlur" x="-30%" y="-30%" width="160%" height="160%"><feGaussianBlur stdDeviation="9"/></filter>
</defs>
<path d="M 22 188 C 140 112, 300 152, 466 86" fill="none" stroke="url(#galaxyGrad)" stroke-width="20" opacity="0.3" filter="url(#galaxyBlur)" transform="translate(0 -15)"/><path d="M 22 188 C 140 112, 300 152, 466 86" fill="none" stroke="url(#galaxyGrad)" stroke-width="15" opacity="0.21" filter="url(#galaxyBlur)" transform="translate(0 0)"/><path d="M 22 188 C 140 112, 300 152, 466 86" fill="none" stroke="url(#galaxyGrad)" stroke-width="10" opacity="0.12" filter="url(#galaxyBlur)" transform="translate(0 15)"/>
<circle cx="199.4" cy="129.1" r="1.6" fill="#e4ecff" opacity="0.69"/><circle cx="124.9" cy="143.3" r="1.8" fill="#ffe9b0" opacity="0.77"/><circle cx="74.3" cy="157.0" r="1.7" fill="#e4ecff" opacity="0.75"/><circle cx="99.4" cy="150.3" r="1.8" fill="#e4ecff" opacity="0.78"/><circle cx="226.6" cy="135.2" r="1.9" fill="#ffe9b0" opacity="0.81"/><circle cx="438.4" cy="105.0" r="1.4" fill="#e4ecff" opacity="0.64"/><circle cx="316.7" cy="117.1" r="1.7" fill="#e4ecff" opacity="0.72"/><circle cx="306.1" cy="125.4" r="1.9" fill="#e4ecff" opacity="0.82"/><circle cx="286.5" cy="143.0" r="0.8" fill="#e4ecff" opacity="0.39"/><circle cx="48.5" cy="177.8" r="1.8" fill="#e4ecff" opacity="0.77"/><circle cx="245.3" cy="137.4" r="1.6" fill="#e4ecff" opacity="0.72"/><circle cx="42.4" cy="175.8" r="1.9" fill="#ffe9b0" opacity="0.82"/><circle cx="246.2" cy="134.7" r="1.8" fill="#e4ecff" opacity="0.79"/><circle cx="146.5" cy="151.9" r="1.5" fill="#e4ecff" opacity="0.64"/><circle cx="184.9" cy="128.5" r="1.4" fill="#ffe9b0" opacity="0.61"/><circle cx="380.1" cy="115.0" r="1.8" fill="#e4ecff" opacity="0.79"/><circle cx="105.4" cy="167.4" r="0.9" fill="#e4ecff" opacity="0.43"/><circle cx="264.2" cy="128.8" r="1.9" fill="#e4ecff" opacity="0.82"/><circle cx="128.3" cy="149.4" r="1.9" fill="#ffe9b0" opacity="0.80"/><circle cx="197.8" cy="134.0" r="1.9" fill="#e4ecff" opacity="0.80"/><circle cx="255.6" cy="116.1" r="1.0" fill="#e4ecff" opacity="0.44"/><circle cx="91.3" cy="159.3" r="1.8" fill="#ffe9b0" opacity="0.80"/><circle cx="272.5" cy="123.0" r="1.7" fill="#e4ecff" opacity="0.74"/><circle cx="253.4" cy="142.1" r="1.2" fill="#e4ecff" opacity="0.53"/><circle cx="401.9" cy="106.0" r="1.9" fill="#e4ecff" opacity="0.82"/><circle cx="433.5" cy="100.8" r="1.8" fill="#ffe9b0" opacity="0.79"/><circle cx="429.1" cy="106.6" r="1.6" fill="#ffe9b0" opacity="0.68"/><circle cx="124.2" cy="144.8" r="1.8" fill="#e4ecff" opacity="0.79"/><circle cx="418.8" cy="107.9" r="1.7" fill="#ffe9b0" opacity="0.74"/><circle cx="427.0" cy="97.7" r="1.9" fill="#e4ecff" opacity="0.81"/><circle cx="294.4" cy="125.6" r="1.9" fill="#ffe9b0" opacity="0.82"/><circle cx="283.0" cy="127.2" r="1.9" fill="#e4ecff" opacity="0.82"/><circle cx="128.1" cy="138.4" r="1.5" fill="#e4ecff" opacity="0.64"/><circle cx="372.9" cy="127.0" r="1.0" fill="#e4ecff" opacity="0.47"/><circle cx="251.2" cy="120.5" r="1.3" fill="#ffe9b0" opacity="0.58"/><circle cx="52.5" cy="161.7" r="1.4" fill="#e4ecff" opacity="0.63"/><circle cx="253.9" cy="142.3" r="1.1" fill="#ffe9b0" opacity="0.52"/><circle cx="58.4" cy="180.5" r="1.2" fill="#ffe9b0" opacity="0.55"/><circle cx="408.1" cy="90.5" r="1.0" fill="#e4ecff" opacity="0.44"/><circle cx="159.0" cy="142.0" r="1.9" fill="#e4ecff" opacity="0.82"/><circle cx="323.3" cy="124.3" r="1.9" fill="#ffe9b0" opacity="0.81"/><circle cx="222.5" cy="150.8" r="0.7" fill="#ffe9b0" opacity="0.36"/><circle cx="113.0" cy="155.7" r="1.7" fill="#e4ecff" opacity="0.75"/><circle cx="185.7" cy="133.5" r="1.8" fill="#e4ecff" opacity="0.77"/><circle cx="220.9" cy="116.9" r="0.8" fill="#e4ecff" opacity="0.37"/><circle cx="76.7" cy="151.8" r="1.4" fill="#e4ecff" opacity="0.62"/><circle cx="386.6" cy="96.3" r="1.0" fill="#e4ecff" opacity="0.45"/><circle cx="125.1" cy="143.9" r="1.8" fill="#e4ecff" opacity="0.78"/><circle cx="69.1" cy="180.4" r="0.9" fill="#e4ecff" opacity="0.41"/><circle cx="312.4" cy="107.1" r="0.8" fill="#e4ecff" opacity="0.38"/><circle cx="81.2" cy="153.4" r="1.7" fill="#e4ecff" opacity="0.72"/><circle cx="191.1" cy="123.1" r="1.0" fill="#ffe9b0" opacity="0.45"/><circle cx="269.7" cy="131.6" r="1.8" fill="#e4ecff" opacity="0.80"/><circle cx="426.2" cy="112.4" r="1.1" fill="#e4ecff" opacity="0.51"/><circle cx="222.3" cy="141.1" r="1.5" fill="#e4ecff" opacity="0.67"/><circle cx="63.9" cy="156.2" r="1.4" fill="#e4ecff" opacity="0.61"/><circle cx="395.3" cy="109.0" r="1.9" fill="#e4ecff" opacity="0.82"/><circle cx="375.7" cy="109.6" r="1.8" fill="#e4ecff" opacity="0.79"/><circle cx="285.7" cy="137.2" r="1.3" fill="#e4ecff" opacity="0.58"/><circle cx="220.7" cy="133.0" r="1.9" fill="#e4ecff" opacity="0.82"/><circle cx="283.8" cy="137.9" r="1.3" fill="#e4ecff" opacity="0.56"/><circle cx="282.6" cy="132.0" r="1.7" fill="#e4ecff" opacity="0.76"/><circle cx="336.2" cy="125.1" r="1.7" fill="#e4ecff" opacity="0.75"/><circle cx="172.8" cy="133.7" r="1.7" fill="#e4ecff" opacity="0.73"/><circle cx="442.5" cy="108.0" r="1.1" fill="#e4ecff" opacity="0.49"/><circle cx="279.2" cy="122.7" r="1.7" fill="#ffe9b0" opacity="0.75"/><circle cx="186.4" cy="144.1" r="1.6" fill="#ffe9b0" opacity="0.71"/><circle cx="349.8" cy="130.1" r="1.1" fill="#e4ecff" opacity="0.51"/><circle cx="211.0" cy="133.9" r="1.9" fill="#e4ecff" opacity="0.82"/><circle cx="345.1" cy="126.6" r="1.5" fill="#e4ecff" opacity="0.67"/><circle cx="414.8" cy="105.7" r="1.9" fill="#ffe9b0" opacity="0.80"/><circle cx="297.5" cy="116.7" r="1.4" fill="#e4ecff" opacity="0.63"/><circle cx="120.3" cy="131.8" r="0.8" fill="#e4ecff" opacity="0.37"/><circle cx="197.1" cy="149.5" r="1.0" fill="#e4ecff" opacity="0.48"/><circle cx="193.5" cy="147.9" r="1.2" fill="#e4ecff" opacity="0.55"/><circle cx="158.6" cy="135.6" r="1.7" fill="#ffe9b0" opacity="0.73"/><circle cx="328.7" cy="119.9" r="1.9" fill="#e4ecff" opacity="0.81"/><circle cx="69.6" cy="167.2" r="1.8" fill="#e4ecff" opacity="0.79"/><circle cx="63.8" cy="170.6" r="1.8" fill="#e4ecff" opacity="0.77"/><circle cx="279.0" cy="143.8" r="0.8" fill="#e4ecff" opacity="0.39"/><circle cx="146.9" cy="126.7" r="0.8" fill="#ffe9b0" opacity="0.38"/><circle cx="263.0" cy="135.4" r="1.7" fill="#e4ecff" opacity="0.72"/><circle cx="366.5" cy="109.1" r="1.7" fill="#e4ecff" opacity="0.73"/><circle cx="250.9" cy="133.8" r="1.8" fill="#e4ecff" opacity="0.79"/><circle cx="272.5" cy="136.0" r="1.5" fill="#e4ecff" opacity="0.68"/><circle cx="110.1" cy="144.3" r="1.6" fill="#e4ecff" opacity="0.70"/><circle cx="166.7" cy="144.6" r="1.8" fill="#e4ecff" opacity="0.77"/><circle cx="193.5" cy="127.7" r="1.4" fill="#e4ecff" opacity="0.62"/><circle cx="61.3" cy="159.1" r="1.5" fill="#e4ecff" opacity="0.67"/><circle cx="115.9" cy="140.2" r="1.4" fill="#ffe9b0" opacity="0.61"/><circle cx="120.0" cy="150.9" r="1.9" fill="#ffe9b0" opacity="0.81"/><circle cx="348.2" cy="124.5" r="1.6" fill="#e4ecff" opacity="0.72"/><circle cx="200.5" cy="127.9" r="1.5" fill="#e4ecff" opacity="0.66"/><circle cx="155.2" cy="136.5" r="1.7" fill="#e4ecff" opacity="0.74"/><circle cx="160.3" cy="141.3" r="1.9" fill="#e4ecff" opacity="0.82"/><circle cx="257.5" cy="146.2" r="0.8" fill="#e4ecff" opacity="0.39"/><circle cx="89.3" cy="157.1" r="1.9" fill="#ffe9b0" opacity="0.82"/><circle cx="302.0" cy="125.5" r="1.9" fill="#e4ecff" opacity="0.82"/><circle cx="74.3" cy="156.9" r="1.7" fill="#e4ecff" opacity="0.75"/><circle cx="154.4" cy="143.3" r="1.9" fill="#e4ecff" opacity="0.82"/><circle cx="385.0" cy="109.8" r="1.9" fill="#e4ecff" opacity="0.82"/><circle cx="386.7" cy="117.6" r="1.6" fill="#e4ecff" opacity="0.69"/><circle cx="69.9" cy="166.9" r="1.8" fill="#ffe9b0" opacity="0.80"/><circle cx="66.7" cy="155.7" r="1.4" fill="#e4ecff" opacity="0.63"/><circle cx="265.6" cy="138.3" r="1.4" fill="#ffe9b0" opacity="0.62"/><circle cx="243.4" cy="138.6" r="1.6" fill="#e4ecff" opacity="0.69"/><circle cx="127.5" cy="167.0" r="0.6" fill="#e4ecff" opacity="0.31"/><circle cx="287.6" cy="120.0" r="1.6" fill="#e4ecff" opacity="0.70"/><circle cx="152.4" cy="145.4" r="1.8" fill="#e4ecff" opacity="0.80"/><circle cx="358.3" cy="123.1" r="1.6" fill="#e4ecff" opacity="0.70"/><circle cx="373.1" cy="111.8" r="1.9" fill="#e4ecff" opacity="0.81"/><circle cx="53.3" cy="171.1" r="1.9" fill="#e4ecff" opacity="0.82"/><circle cx="170.5" cy="139.5" r="1.9" fill="#ffe9b0" opacity="0.82"/><circle cx="335.3" cy="100.8" r="0.6" fill="#e4ecff" opacity="0.31"/><circle cx="148.4" cy="143.9" r="1.9" fill="#e4ecff" opacity="0.82"/><circle cx="48.5" cy="168.9" r="1.8" fill="#ffe9b0" opacity="0.78"/><circle cx="349.4" cy="108.5" r="1.4" fill="#e4ecff" opacity="0.61"/><circle cx="193.8" cy="142.9" r="1.6" fill="#e4ecff" opacity="0.72"/><circle cx="318.3" cy="109.8" r="1.0" fill="#e4ecff" opacity="0.48"/><circle cx="80.1" cy="143.7" r="0.9" fill="#ffe9b0" opacity="0.40"/><circle cx="306.1" cy="133.0" r="1.5" fill="#ffe9b0" opacity="0.64"/><circle cx="296.4" cy="125.0" r="1.9" fill="#e4ecff" opacity="0.82"/>
<path d="M 22 188 C 140 112, 300 152, 466 86" fill="none" stroke="#ffffff" stroke-opacity="0.14" stroke-width="1.2" stroke-dasharray="2 7"/>

<!-- 星图 -->
<circle cx="133.86275474913418" cy="158.85676285112277" r="2.3775232314364985" fill="#dfe8ff" opacity="0.8312017583404667"><animate attributeName="opacity" values="0.8312017583404667;1;0.8312017583404667" dur="3.2s" repeatCount="indefinite"/></circle><circle cx="130.36895741242915" cy="152.86292421352118" r="1.4363451743498445" fill="#dfe8ff" opacity="0.46549167267512526"></circle><circle cx="113.07637148536742" cy="154.989380763378" r="1.1209899707697333" fill="#dfe8ff" opacity="0.5727637211792171"></circle><circle cx="198.59247798565775" cy="175.1062401784584" r="2.0980285278055817" fill="#dfe8ff" opacity="0.8349963190732523"><animate attributeName="opacity" values="0.8349963190732523;1;0.8349963190732523" dur="2.6s" repeatCount="indefinite"/></circle><circle cx="296.8811418581754" cy="181.09889580775052" r="0.8764479536563158" fill="#dfe8ff" opacity="0.46685544876381757"></circle><circle cx="150.1048058923334" cy="107.71201713010669" r="1.5513726751785726" fill="#dfe8ff" opacity="0.9174176746048033"></circle><g><circle cx="85.61001523397863" cy="109.33801542315632" r="2.711867419932969" fill="#dfe8ff" opacity="0.95"><animate attributeName="opacity" values="0.95;1;0.95" dur="3.6s" repeatCount="indefinite"/></circle>
  <path d="M85.61001523397863 101.6 L85.61001523397863 117.0 M77.9 109.33801542315632 L93.3 109.33801542315632" stroke="#dfe8ff" stroke-opacity="0.8" stroke-width="0.8"/>
</g><circle cx="250.41874943766743" cy="143.94856383418664" r="1.9706790355267003" fill="#dfe8ff" opacity="0.8447925906395539"></circle><circle cx="45.07839507423341" cy="149.43546913051978" r="0.813946780655533" fill="#dfe8ff" opacity="0.5485255145234986"></circle><circle cx="422.3985452950001" cy="117.11101585067809" r="1.082774324482307" fill="#dfe8ff" opacity="0.37976556024514135"></circle><circle cx="274.97292711865157" cy="135.4370206403546" r="1.3436396724078805" fill="#dfe8ff" opacity="0.36131555791944264"></circle><circle cx="255.43826408218592" cy="90.30567833408713" r="0.9062467980198562" fill="#dfe8ff" opacity="0.5494470638455823"><animate attributeName="opacity" values="0.5494470638455823;0.8494470638455822;0.5494470638455823" dur="2.1s" repeatCount="indefinite"/></circle><circle cx="193.47467398736626" cy="124.13442340493202" r="1.525625893473625" fill="#dfe8ff" opacity="0.81278503324138"><animate attributeName="opacity" values="0.81278503324138;1;0.81278503324138" dur="3.6s" repeatCount="indefinite"/></circle><circle cx="304.41505146212876" cy="132.90613985387608" r="0.7643878857139498" fill="#dfe8ff" opacity="0.4591533926082775"></circle><circle cx="277.1232778765261" cy="155.34388794982806" r="0.9273455540183931" fill="#dfe8ff" opacity="0.5677167179295792"><animate attributeName="opacity" values="0.5677167179295792;0.8677167179295793;0.5677167179295792" dur="2.1s" repeatCount="indefinite"/></circle><circle cx="174.83300268184394" cy="182.12022457132116" r="2.0727160258218644" fill="#dfe8ff" opacity="0.8881572793936356"></circle><circle cx="306.11858198884875" cy="165.53992270072922" r="0.8964198617264628" fill="#dfe8ff" opacity="0.5796007002471015"></circle><circle cx="313.72667100280523" cy="150.27941869664937" r="0.9090763732325285" fill="#dfe8ff" opacity="0.5436872478341683"><animate attributeName="opacity" values="0.5436872478341683;0.8436872478341684;0.5436872478341683" dur="3.1s" repeatCount="indefinite"/></circle><circle cx="271.85383952222764" cy="90.83492582570761" r="0.7225830856710672" fill="#dfe8ff" opacity="0.30416319337673486"></circle><circle cx="427.0702560245991" cy="139.26634508837014" r="1.2294005690142513" fill="#dfe8ff" opacity="0.5262324725976213"></circle><circle cx="358.79699983634055" cy="151.62214860133827" r="1.5534218031913043" fill="#dfe8ff" opacity="0.3586001691408455"></circle><circle cx="413.4524603560567" cy="157.58585662813857" r="1.1367209180258215" fill="#dfe8ff" opacity="0.4421844136202708"></circle><circle cx="426.9380654208362" cy="97.22207996016368" r="1.594729825994" fill="#dfe8ff" opacity="0.3036082357401028"><animate attributeName="opacity" values="0.3036082357401028;0.6036082357401028;0.3036082357401028" dur="3.7s" repeatCount="indefinite"/></circle><circle cx="339.1504032583907" cy="115.49320485582575" r="2.092249110946432" fill="#dfe8ff" opacity="0.7454930759733542"></circle><circle cx="212.5558453425765" cy="101.94761684024706" r="0.6917620768304914" fill="#dfe8ff" opacity="0.35538707482628523"><animate attributeName="opacity" values="0.35538707482628523;0.6553870748262852;0.35538707482628523" dur="2.3s" repeatCount="indefinite"/></circle><circle cx="127.05600641202182" cy="112.31718468200415" r="1.1188196341041476" fill="#dfe8ff" opacity="0.3517351489048451"><animate attributeName="opacity" values="0.3517351489048451;0.6517351489048451;0.3517351489048451" dur="2.2s" repeatCount="indefinite"/></circle><g><circle cx="187.83447538968176" cy="126.72671075537801" r="2.5711422082502393" fill="#dfe8ff" opacity="0.95"></circle>
  <path d="M187.83447538968176 119.2 L187.83447538968176 134.3 M180.3 126.72671075537801 L195.4 126.72671075537801" stroke="#dfe8ff" stroke-opacity="0.8" stroke-width="0.8"/>
</g><circle cx="127.64382753521204" cy="151.9913504961878" r="1.3391555432695896" fill="#dfe8ff" opacity="0.5825257337652147"><animate attributeName="opacity" values="0.5825257337652147;0.8825257337652146;0.5825257337652147" dur="4.1s" repeatCount="indefinite"/></circle><circle cx="366.9571448676288" cy="105.13160753063858" r="0.6634903747122735" fill="#dfe8ff" opacity="0.3069976574974134"><animate attributeName="opacity" values="0.3069976574974134;0.6069976574974134;0.3069976574974134" dur="4.8s" repeatCount="indefinite"/></circle><circle cx="448.0230547254905" cy="148.24262219620869" r="0.9558939730282873" fill="#dfe8ff" opacity="0.4872132404241711"></circle><circle cx="105.80293759703636" cy="179.76282270764932" r="1.0724106232170016" fill="#dfe8ff" opacity="0.5460922569036484"></circle><circle cx="225.18060530070215" cy="93.74854811187834" r="1.2544757306110115" fill="#dfe8ff" opacity="0.38257324062287806"><animate attributeName="opacity" values="0.38257324062287806;0.682573240622878;0.38257324062287806" dur="3.5s" repeatCount="indefinite"/></circle><circle cx="46.444449266418815" cy="158.15019842796028" r="0.9670508796349168" fill="#dfe8ff" opacity="0.49470287407748403"></circle><circle cx="209.52172786463052" cy="183.8799529443495" r="1.27627894715406" fill="#dfe8ff" opacity="0.3106601569103077"></circle><circle cx="395.69672228302807" cy="129.03449221281335" r="1.5301265494432301" fill="#dfe8ff" opacity="0.30071028107777237"><animate attributeName="opacity" values="0.30071028107777237;0.6007102810777724;0.30071028107777237" dur="3.5s" repeatCount="indefinite"/></circle><circle cx="45.39558432530612" cy="111.38317315047607" r="0.7503005349077284" fill="#dfe8ff" opacity="0.576883151452057"></circle><circle cx="35.206836950965226" cy="148.02209115494043" r="2.5476478138472887" fill="#dfe8ff" opacity="0.8748404303798452"><animate attributeName="opacity" values="0.8748404303798452;1;0.8748404303798452" dur="5.0s" repeatCount="indefinite"/></circle><circle cx="218.70731378439814" cy="136.55526057444513" r="2.222871533827856" fill="#dfe8ff" opacity="0.8090339017100632"></circle><circle cx="67.82440148759633" cy="146.3216524804011" r="0.9853099134285003" fill="#dfe8ff" opacity="0.542396888206713"></circle><circle cx="66.53026445768774" cy="154.20002359570935" r="0.8029492708388716" fill="#dfe8ff" opacity="0.35162810781039294"></circle><g><circle cx="70.94248870387673" cy="133.0269564241171" r="2.719227154715918" fill="#dfe8ff" opacity="0.95"></circle>
  <path d="M70.94248870387673 125.3 L70.94248870387673 140.7 M63.2 133.0269564241171 L78.7 133.0269564241171" stroke="#dfe8ff" stroke-opacity="0.8" stroke-width="0.8"/>
</g><circle cx="350.57657402940094" cy="110.15465993713588" r="1.0045825025532396" fill="#dfe8ff" opacity="0.5288426548708229"></circle><circle cx="308.6266432609409" cy="149.80946363927796" r="1.723881323542446" fill="#dfe8ff" opacity="0.8805520741036161"><animate attributeName="opacity" values="0.8805520741036161;1;0.8805520741036161" dur="4.4s" repeatCount="indefinite"/></circle><circle cx="226.3661703793332" cy="156.3370600300841" r="1.5596960997208953" fill="#dfe8ff" opacity="0.8797212117817252"></circle><circle cx="321.5568545786664" cy="151.89962516678497" r="0.6932360170409083" fill="#dfe8ff" opacity="0.47700388364028184"><animate attributeName="opacity" values="0.47700388364028184;0.7770038836402818;0.47700388364028184" dur="4.4s" repeatCount="indefinite"/></circle><circle cx="403.48827798385173" cy="136.80393617413938" r="0.6871151355095207" fill="#dfe8ff" opacity="0.3013398649636656"><animate attributeName="opacity" values="0.3013398649636656;0.6013398649636656;0.3013398649636656" dur="3.3s" repeatCount="indefinite"/></circle><circle cx="390.95984974410385" cy="177.99376434227452" r="1.012894708570093" fill="#dfe8ff" opacity="0.39591760053299363"></circle><circle cx="370.78554833773524" cy="137.77309311786667" r="0.8133662700653076" fill="#dfe8ff" opacity="0.48097443419974295"></circle><circle cx="278.22960121091455" cy="114.17789534293115" r="0.8418255957309156" fill="#dfe8ff" opacity="0.5116863420233131"><animate attributeName="opacity" values="0.5116863420233131;0.8116863420233131;0.5116863420233131" dur="2.9s" repeatCount="indefinite"/></circle><g><circle cx="207.41783454548568" cy="183.82445181393996" r="2.228376766270958" fill="#dfe8ff" opacity="0.95"></circle>
  <path d="M207.41783454548568 176.6 L207.41783454548568 191.1 M200.2 183.82445181393996 L214.6 183.82445181393996" stroke="#dfe8ff" stroke-opacity="0.8" stroke-width="0.8"/>
</g><circle cx="157.68463392276317" cy="157.36331990268081" r="1.4227085801772774" fill="#dfe8ff" opacity="0.4198779746890068"></circle><circle cx="186.0186846088618" cy="168.65786940744147" r="0.7443745894357562" fill="#dfe8ff" opacity="0.41249624330084766"></circle><circle cx="400.8983610710129" cy="128.42360574519262" r="0.7836332534439862" fill="#dfe8ff" opacity="0.3152338073356077"></circle><circle cx="249.81259339023381" cy="168.1490372736007" r="0.8035883420612663" fill="#dfe8ff" opacity="0.3345697459531948"><animate attributeName="opacity" values="0.3345697459531948;0.6345697459531947;0.3345697459531948" dur="4.5s" repeatCount="indefinite"/></circle><circle cx="360.20691585727036" cy="148.99527898943052" r="1.4805182699579746" fill="#dfe8ff" opacity="0.36127450831700114"></circle><circle cx="228.3953074319288" cy="181.35770735470578" r="0.7499079293571412" fill="#dfe8ff" opacity="0.4894408660009503"></circle><circle cx="343.1613097060472" cy="123.72576504340395" r="0.7658077675383538" fill="#dfe8ff" opacity="0.5057238950394094"><animate attributeName="opacity" values="0.5057238950394094;0.8057238950394094;0.5057238950394094" dur="2.3s" repeatCount="indefinite"/></circle><circle cx="426.71400129329413" cy="101.83061674283817" r="1.9295089823426679" fill="#dfe8ff" opacity="0.9433534651063382"></circle><circle cx="137.56131229922175" cy="166.8751423312351" r="1.2034799336921425" fill="#dfe8ff" opacity="0.3873926474712789"></circle><circle cx="432.16040523257107" cy="133.17066509043798" r="0.6387407580856234" fill="#dfe8ff" opacity="0.43577395244501527"></circle><circle cx="252.16411580331624" cy="148.35550366155803" r="1.2449163900688291" fill="#dfe8ff" opacity="0.31188459279946984"></circle><circle cx="414.3272065417841" cy="139.05999756231904" r="1.5648740117670967" fill="#dfe8ff" opacity="0.8320135302376002"></circle><circle cx="409.72831771709025" cy="162.29357138834894" r="0.6959971526172012" fill="#dfe8ff" opacity="0.39068201766349375"></circle><circle cx="318.6775472480804" cy="131.991490281187" r="0.7991326003335416" fill="#dfe8ff" opacity="0.580071708234027"></circle><circle cx="178.19047529250383" cy="116.52387888822705" r="0.9284987558145076" fill="#dfe8ff" opacity="0.39504342488944527"><animate attributeName="opacity" values="0.39504342488944527;0.6950434248894453;0.39504342488944527" dur="3.9s" repeatCount="indefinite"/></circle><circle cx="39.249505419284105" cy="116.79285262385383" r="1.3133900774642826" fill="#dfe8ff" opacity="0.5065273937769235"><animate attributeName="opacity" values="0.5065273937769235;0.8065273937769235;0.5065273937769235" dur="2.2s" repeatCount="indefinite"/></circle><circle cx="317.6811852492392" cy="148.16883137170225" r="1.3524880035780371" fill="#dfe8ff" opacity="0.43605655487626793"></circle><circle cx="248.67697867099196" cy="160.01197995292023" r="1.503115408262238" fill="#dfe8ff" opacity="0.30007939275819806"><animate attributeName="opacity" values="0.30007939275819806;0.600079392758198;0.30007939275819806" dur="4.9s" repeatCount="indefinite"/></circle><g><circle cx="442.8747314075008" cy="161.9175649797544" r="2.60155705048237" fill="#dfe8ff" opacity="0.95"></circle>
  <path d="M442.8747314075008 154.3 L442.8747314075008 169.5 M435.3 161.9175649797544 L450.5 161.9175649797544" stroke="#dfe8ff" stroke-opacity="0.8" stroke-width="0.8"/>
</g><circle cx="88.65724756848067" cy="180.33156881853938" r="1.9730156899662687" fill="#dfe8ff" opacity="0.7379366307752206"></circle>

<!-- 形态描述 -->
<text x="24" y="196" font-size="11" fill="#7A7393">✦ 密集星辰，隐约可见银河轮廓</text>


</svg>